<svg width="28" height="22" viewBox="0 0 28 22" fill="none" xmlns="http://www.w3.org/2000/svg">
<path d="M24.913 21.1788C25.5102 21.1788 26.0277 20.9799 26.4677 20.5871L18.9398 12.9932C18.7592 13.1237 18.5842 13.2505 18.4188 13.3711C17.8554 13.7898 17.3982 14.1166 17.0471 14.3507C16.6961 14.5853 16.229 14.8245 15.646 15.0687C15.0626 15.3131 14.5191 15.435 14.0148 15.435H14.0001H13.9853C13.4811 15.435 12.9375 15.3132 12.3542 15.0687C11.7708 14.8245 11.3037 14.5853 10.953 14.3507C10.602 14.1166 10.145 13.7899 9.58137 13.3711C9.4243 13.255 9.2501 13.1275 9.06177 12.9911L1.53247 20.5871C1.97237 20.9799 2.49023 21.1788 3.08745 21.1788L24.913 21.1788Z" fill="white"/>
<path d="M2.15206 8.1891C1.59343 7.8121 1.09803 7.38033 0.666748 6.89398L0.666748 18.3916L7.24683 11.731C5.93044 10.8007 4.23434 9.62145 2.15206 8.1891Z" fill="white"/>
<path d="M25.8625 8.18907C23.8588 9.56124 22.1559 10.7425 20.7534 11.7335L27.3335 18.3916L27.3335 6.89398C26.9116 7.37053 26.4213 7.802 25.8625 8.18907Z" fill="white"/>
<path d="M24.9522 0.100037L3.04757 0.100037C2.28339 0.100037 1.69587 0.359642 1.28429 0.878317C0.872368 1.39724 0.666748 2.0462 0.666748 2.82448C0.666748 3.45313 0.939617 4.13429 1.48511 4.86815C2.03061 5.60172 2.61106 6.17792 3.22618 6.59704C3.56339 6.83672 4.58031 7.54793 6.27693 8.73043C7.1928 9.36892 7.98929 9.92544 8.67373 10.4057C9.25714 10.8146 9.76027 11.1688 10.1757 11.4627C10.2234 11.4963 10.2984 11.5503 10.3979 11.6219C10.5051 11.6994 10.6409 11.7977 10.8083 11.9193C11.1307 12.1539 11.3985 12.3435 11.6118 12.4884C11.8249 12.6333 12.083 12.7951 12.3857 12.9749C12.6883 13.1543 12.9737 13.2893 13.2415 13.3791C13.5094 13.4688 13.7574 13.5138 13.9855 13.5138H14.0003H14.0151C14.2432 13.5138 14.4912 13.4688 14.7592 13.3791C15.0269 13.2893 15.3121 13.1546 15.6149 12.9749C15.9174 12.7951 16.1751 12.6329 16.3888 12.4884C16.6021 12.3435 16.87 12.154 17.1924 11.9193C17.3595 11.7977 17.4952 11.6993 17.6025 11.6221C17.702 11.5502 17.777 11.4966 17.825 11.4627C18.1486 11.2361 18.6529 10.8834 19.3309 10.4098C20.5646 9.54748 22.3815 8.27824 24.7893 6.59704C25.5135 6.0882 26.1185 5.47416 26.6047 4.75579C27.0901 4.03742 27.3334 3.28388 27.3334 2.49542C27.3334 1.83666 27.0975 1.27299 26.6266 0.803504C26.1553 0.334607 25.5971 0.100037 24.9522 0.100037Z" fill="white"/>
</svg>
