<svg width="22" height="22" viewBox="0 0 22 22" fill="none" xmlns="http://www.w3.org/2000/svg">
<path d="M16.2253 0.439941H6.44149C3.25724 0.439941 0.666748 3.00453 0.666748 6.15692V15.8431C0.666748 18.9953 3.25724 21.5599 6.44149 21.5599H16.2255C19.4096 21.5599 22.0001 18.9953 22.0001 15.8431V6.15692C22.0001 3.00453 19.4096 0.439941 16.2253 0.439941ZM11.3334 16.7748C8.11694 16.7748 5.50024 14.1842 5.50024 10.9999C5.50024 7.81562 8.11694 5.22509 11.3334 5.22509C14.5499 5.22509 17.1666 7.81562 17.1666 10.9999C17.1666 14.1842 14.5499 16.7748 11.3334 16.7748ZM17.3061 6.58699C16.3556 6.58699 15.5824 5.82161 15.5824 4.88059C15.5824 3.93958 16.3556 3.17404 17.3061 3.17404C18.2566 3.17404 19.0299 3.93958 19.0299 4.88059C19.0299 5.82161 18.2566 6.58699 17.3061 6.58699Z" fill="white"/>
<path d="M11.3333 6.46338C8.80656 6.46338 6.75073 8.49847 6.75073 11C6.75073 13.5015 8.80656 15.5367 11.3333 15.5367C13.8601 15.5367 15.9158 13.5015 15.9158 11C15.9158 8.49847 13.8601 6.46338 11.3333 6.46338Z" fill="white"/>
</svg>
