<svg width="22" height="16" viewBox="0 0 22 16" fill="none" xmlns="http://www.w3.org/2000/svg">
<path fill-rule="evenodd" clip-rule="evenodd" d="M10.3585 4.2937L10.4048 4.97883L9.63408 4.89494C6.82863 4.57335 4.37771 3.48274 2.29675 1.65108L1.27941 0.742242L1.01735 1.41338C0.462432 2.90947 0.816975 4.48945 1.97306 5.5521C2.58964 6.13935 2.45091 6.22324 1.38731 5.87368C1.01736 5.76183 0.693651 5.67793 0.662822 5.71988C0.55492 5.81776 0.924867 7.09013 1.21774 7.59349C1.61852 8.29259 2.43549 8.97772 3.32953 9.3832L4.08484 9.70479L3.1908 9.71877C2.32758 9.71877 2.29675 9.73275 2.38924 10.0264C2.69753 10.9352 3.91529 11.9 5.27177 12.3194L6.22746 12.6131L5.39508 13.0605C4.16192 13.7037 2.71295 14.0672 1.26399 14.0952C0.570335 14.1092 0 14.1651 0 14.207C0 14.3469 1.88057 15.1299 2.975 15.4375C6.25829 16.3463 10.1582 15.9548 13.0869 14.4028C15.1679 13.2982 17.2488 11.103 18.22 8.97772C18.744 7.84517 19.2681 5.77581 19.2681 4.78308C19.2681 4.1399 19.3144 4.05601 20.1776 3.28699C20.6863 2.83956 21.1641 2.35019 21.2566 2.21037C21.4108 1.94471 21.3953 1.94471 20.6092 2.1824C19.299 2.60187 19.114 2.54594 19.7614 1.91674C20.2392 1.46931 20.8096 0.658349 20.8096 0.420653C20.8096 0.378707 20.5784 0.448617 20.3163 0.574457C20.0389 0.714278 19.4223 0.92401 18.9598 1.04985L18.1275 1.28755L17.3722 0.826135C16.956 0.574457 16.3702 0.294814 16.0619 0.210921C15.2758 0.0151715 14.0734 0.0431357 13.3644 0.26685C11.4376 0.896046 10.2198 2.51797 10.3585 4.2937Z" fill="white"/>
</svg>
